<svg width="24" height="24" viewBox="0 0 24 24" fill="none" xmlns="http://www.w3.org/2000/svg">
<path d="M17.422 13.442c-1.186.876-2.908 1.342-4.39 1.342-2.078 0-3.946-.768-5.36-2.048-.11-.1-.012-.238.122-.16 1.526.888 3.414 1.424 5.364 1.424 1.314 0 2.76-.272 4.09-.838.2-.086.37.132.174.28z" class="fill-light-icon dark:fill-dark-icon"/>
<path d="M17.934 12.854c-.152-.194-1.004-.092-1.386-.046-.116.014-.134-.088-.03-.16.68-.478 1.794-.34 1.924-.18.13.162-.034 1.28-.672 1.814-.098.082-.192.038-.148-.07.144-.36.464-1.164.312-1.358z" class="fill-light-icon dark:fill-dark-icon"/>
<path d="M16.574 8.774V8.19c0-.088.066-.148.146-.148h2.592c.084 0 .15.062.15.148v.5c-.002.084-.072.194-.198.368l-1.342 1.916c.498-.012 1.024.062 1.476.314.102.056.13.142.136.224v.624c0 .086-.094.184-.192.132-.802-.42-1.866-.466-2.752.004-.09.048-.184-.048-.184-.134v-.594c0-.096.002-.258.098-.402l1.554-2.228h-1.352c-.084 0-.15-.06-.15-.146l.018-.012zM5.89 12.298h-.79c-.074-.006-.134-.062-.14-.134V8.2c0-.08.068-.144.15-.144h.736c.078.004.14.064.144.138v.538h.016c.19-.52.55-.762 1.034-.762.492 0 .8.242.99.762.19-.52.622-.762 1.088-.762.33 0 .692.136.912.442.252.34.2.834.2 1.268l-.002 2.616c0 .08-.068.144-.15.144h-.788c-.078-.006-.14-.068-.14-.144V9.896c0-.17.016-.594-.022-.756-.058-.27-.23-.346-.454-.346-.188 0-.384.126-.464.326-.08.2-.072.534-.072.776v2.262c0 .08-.068.144-.15.144h-.788c-.078-.006-.14-.068-.14-.144l-.002-2.262c0-.45.074-1.112-.476-1.112-.554 0-.532.646-.532 1.112v2.262c0 .08-.068.144-.15.144h-.008zM19.932 8.042c1.172 0 1.806 1.006 1.806 2.286 0 1.236-.7 2.216-1.806 2.216-1.152 0-1.78-1.006-1.78-2.26 0-1.262.634-2.242 1.78-2.242zm.006.828c-.582 0-.618.794-.618 1.288 0 .496-.008 1.554.61 1.554.612 0 .642-.854.642-1.374 0-.344-.014-.754-.114-1.082-.086-.286-.258-.386-.52-.386zM14.054 12.298h-.786c-.078-.006-.14-.068-.14-.144l-.002-3.97c.006-.074.068-.132.15-.132h.73c.068.004.126.05.142.114v.608h.014c.222-.544.532-.796 1.078-.796.346 0 .682.124.898.466.2.318.2.854.2 1.236v2.288c-.008.072-.07.13-.15.13h-.792c-.074-.006-.132-.06-.14-.13V9.87c0-.442.052-1.088-.484-1.088-.188 0-.36.126-.446.318-.108.242-.122.484-.122.77v2.284c-.002.08-.07.144-.152.144z" class="fill-light-icon dark:fill-dark-icon"/>
<path d="M12.358 10.538c0 .306.008.562-.146.836-.126.22-.326.356-.548.356-.304 0-.482-.232-.482-.574 0-.674.604-.796 1.176-.796v.178zm.798 1.928c-.052.046-.128.05-.186.018-.262-.218-.31-.318-.452-.526-.432.44-.74.572-1.3.572-.664 0-1.18-.41-1.18-1.23 0-.64.346-1.076.842-1.29.428-.188 1.028-.222 1.486-.274v-.102c0-.188.014-.41-.096-.572-.096-.144-.28-.204-.442-.204-.3 0-.568.154-.634.474-.014.07-.066.14-.136.144l-.762-.082c-.064-.014-.136-.068-.118-.168C10.314 8.41 11.082 8.1 11.78 8.1c.358 0 .826.096 1.108.368.358.334.324.78.324 1.264v1.146c0 .344.144.496.278.682.048.068.058.148-.002.198l-.332.29v-.002z" class="fill-light-icon dark:fill-dark-icon"/>
</svg>
